<mxfile host="app.diagrams.net" modified="2022-11-24T07:38:21.793Z" agent="5.0 (Windows NT 10.0; Win64; x64) AppleWebKit/537.36 (KHTML, like Gecko) Chrome/107.0.0.0 Safari/537.36 Edg/107.0.1418.52" etag="KJWNc3i1B5eOIBv2Cdmj" version="20.5.3" type="github">
  <diagram id="AL3O_xL7YQzq8grCgCo2" name="第 1 页">
    <mxGraphModel dx="1375" dy="762" grid="1" gridSize="10" guides="1" tooltips="1" connect="1" arrows="1" fold="1" page="1" pageScale="1" pageWidth="1654" pageHeight="2336" math="0" shadow="0">
      <root>
        <mxCell id="0" />
        <mxCell id="1" parent="0" />
        <mxCell id="YoZwcybYt3LhvjKQw7QA-45" style="edgeStyle=orthogonalEdgeStyle;rounded=0;orthogonalLoop=1;jettySize=auto;html=1;exitX=0.25;exitY=1;exitDx=0;exitDy=0;entryX=0;entryY=0.5;entryDx=0;entryDy=0;entryPerimeter=0;" edge="1" parent="1" source="YoZwcybYt3LhvjKQw7QA-3" target="YoZwcybYt3LhvjKQw7QA-21">
          <mxGeometry relative="1" as="geometry">
            <Array as="points">
              <mxPoint x="255" y="360" />
              <mxPoint x="100" y="360" />
              <mxPoint x="100" y="560" />
            </Array>
          </mxGeometry>
        </mxCell>
        <mxCell id="YoZwcybYt3LhvjKQw7QA-46" value="schedule task" style="edgeLabel;html=1;align=center;verticalAlign=middle;resizable=0;points=[];" vertex="1" connectable="0" parent="YoZwcybYt3LhvjKQw7QA-45">
          <mxGeometry x="-0.7362" y="-2" relative="1" as="geometry">
            <mxPoint x="-113" y="77" as="offset" />
          </mxGeometry>
        </mxCell>
        <mxCell id="YoZwcybYt3LhvjKQw7QA-3" value="" style="rounded=0;whiteSpace=wrap;html=1;" vertex="1" parent="1">
          <mxGeometry x="150" y="320" width="420" height="80" as="geometry" />
        </mxCell>
        <mxCell id="YoZwcybYt3LhvjKQw7QA-8" style="edgeStyle=orthogonalEdgeStyle;rounded=0;orthogonalLoop=1;jettySize=auto;html=1;exitX=0.5;exitY=1;exitDx=0;exitDy=0;entryX=0.355;entryY=-0.025;entryDx=0;entryDy=0;entryPerimeter=0;" edge="1" parent="1" source="YoZwcybYt3LhvjKQw7QA-6" target="YoZwcybYt3LhvjKQw7QA-3">
          <mxGeometry relative="1" as="geometry">
            <mxPoint x="210" y="310" as="targetPoint" />
          </mxGeometry>
        </mxCell>
        <mxCell id="YoZwcybYt3LhvjKQw7QA-10" value="master/slave&lt;br&gt;| count" style="edgeLabel;html=1;align=center;verticalAlign=middle;resizable=0;points=[];" vertex="1" connectable="0" parent="YoZwcybYt3LhvjKQw7QA-8">
          <mxGeometry x="-0.0954" y="-3" relative="1" as="geometry">
            <mxPoint y="56" as="offset" />
          </mxGeometry>
        </mxCell>
        <mxCell id="YoZwcybYt3LhvjKQw7QA-6" value="enterprise kafka topic" style="ellipse;whiteSpace=wrap;html=1;" vertex="1" parent="1">
          <mxGeometry x="240" y="55" width="120" height="80" as="geometry" />
        </mxCell>
        <mxCell id="YoZwcybYt3LhvjKQw7QA-9" style="edgeStyle=orthogonalEdgeStyle;rounded=0;orthogonalLoop=1;jettySize=auto;html=1;exitX=0.5;exitY=1;exitDx=0;exitDy=0;entryX=0.857;entryY=0.033;entryDx=0;entryDy=0;entryPerimeter=0;" edge="1" parent="1" source="YoZwcybYt3LhvjKQw7QA-7" target="YoZwcybYt3LhvjKQw7QA-3">
          <mxGeometry relative="1" as="geometry" />
        </mxCell>
        <mxCell id="YoZwcybYt3LhvjKQw7QA-11" value="master/slave&lt;br&gt;| count" style="edgeLabel;html=1;align=center;verticalAlign=middle;resizable=0;points=[];" vertex="1" connectable="0" parent="YoZwcybYt3LhvjKQw7QA-9">
          <mxGeometry x="-0.1872" y="-3" relative="1" as="geometry">
            <mxPoint x="3" y="64" as="offset" />
          </mxGeometry>
        </mxCell>
        <mxCell id="YoZwcybYt3LhvjKQw7QA-7" value="province kafka topic" style="ellipse;whiteSpace=wrap;html=1;" vertex="1" parent="1">
          <mxGeometry x="450" y="55" width="120" height="80" as="geometry" />
        </mxCell>
        <mxCell id="YoZwcybYt3LhvjKQw7QA-13" value="" style="endArrow=none;html=1;rounded=0;" edge="1" parent="1" target="YoZwcybYt3LhvjKQw7QA-3">
          <mxGeometry width="50" height="50" relative="1" as="geometry">
            <mxPoint x="150" y="360" as="sourcePoint" />
            <mxPoint x="200" y="310" as="targetPoint" />
            <Array as="points">
              <mxPoint x="520" y="360" />
            </Array>
          </mxGeometry>
        </mxCell>
        <mxCell id="YoZwcybYt3LhvjKQw7QA-19" value="thread1:poll()" style="text;html=1;strokeColor=none;fillColor=none;align=center;verticalAlign=middle;whiteSpace=wrap;rounded=0;" vertex="1" parent="1">
          <mxGeometry x="270" y="320" width="60" height="30" as="geometry" />
        </mxCell>
        <mxCell id="YoZwcybYt3LhvjKQw7QA-20" value="thread2:poll()" style="text;html=1;strokeColor=none;fillColor=none;align=center;verticalAlign=middle;whiteSpace=wrap;rounded=0;" vertex="1" parent="1">
          <mxGeometry x="480" y="320" width="60" height="30" as="geometry" />
        </mxCell>
        <mxCell id="YoZwcybYt3LhvjKQw7QA-21" value="" style="shape=cylinder3;whiteSpace=wrap;html=1;boundedLbl=1;backgroundOutline=1;size=15;" vertex="1" parent="1">
          <mxGeometry x="310" y="530" width="170" height="90" as="geometry" />
        </mxCell>
        <mxCell id="YoZwcybYt3LhvjKQw7QA-22" value="threadPool:" style="text;html=1;strokeColor=none;fillColor=none;align=center;verticalAlign=middle;whiteSpace=wrap;rounded=0;" vertex="1" parent="1">
          <mxGeometry x="160" y="320" width="60" height="30" as="geometry" />
        </mxCell>
        <mxCell id="YoZwcybYt3LhvjKQw7QA-23" value="Dao:" style="text;html=1;strokeColor=none;fillColor=none;align=center;verticalAlign=middle;whiteSpace=wrap;rounded=0;" vertex="1" parent="1">
          <mxGeometry x="150" y="360" width="60" height="30" as="geometry" />
        </mxCell>
        <mxCell id="YoZwcybYt3LhvjKQw7QA-28" style="edgeStyle=orthogonalEdgeStyle;rounded=0;orthogonalLoop=1;jettySize=auto;html=1;exitX=0.5;exitY=1;exitDx=0;exitDy=0;entryX=0.145;entryY=0;entryDx=0;entryDy=4.35;entryPerimeter=0;" edge="1" parent="1" source="YoZwcybYt3LhvjKQw7QA-24" target="YoZwcybYt3LhvjKQw7QA-21">
          <mxGeometry relative="1" as="geometry" />
        </mxCell>
        <mxCell id="YoZwcybYt3LhvjKQw7QA-24" value="receiveEnterpriseMsg()" style="text;html=1;strokeColor=none;fillColor=none;align=center;verticalAlign=middle;whiteSpace=wrap;rounded=0;" vertex="1" parent="1">
          <mxGeometry x="270" y="370" width="60" height="30" as="geometry" />
        </mxCell>
        <mxCell id="YoZwcybYt3LhvjKQw7QA-25" value="" style="endArrow=classic;html=1;rounded=0;" edge="1" parent="1">
          <mxGeometry width="50" height="50" relative="1" as="geometry">
            <mxPoint x="299.5" y="340" as="sourcePoint" />
            <mxPoint x="299.5" y="380" as="targetPoint" />
          </mxGeometry>
        </mxCell>
        <mxCell id="YoZwcybYt3LhvjKQw7QA-26" value="" style="endArrow=classic;html=1;rounded=0;" edge="1" parent="1">
          <mxGeometry width="50" height="50" relative="1" as="geometry">
            <mxPoint x="509.5" y="340" as="sourcePoint" />
            <mxPoint x="509.5" y="380" as="targetPoint" />
          </mxGeometry>
        </mxCell>
        <mxCell id="YoZwcybYt3LhvjKQw7QA-29" style="edgeStyle=orthogonalEdgeStyle;rounded=0;orthogonalLoop=1;jettySize=auto;html=1;exitX=0.5;exitY=1;exitDx=0;exitDy=0;entryX=0.318;entryY=-0.033;entryDx=0;entryDy=0;entryPerimeter=0;" edge="1" parent="1" source="YoZwcybYt3LhvjKQw7QA-27" target="YoZwcybYt3LhvjKQw7QA-21">
          <mxGeometry relative="1" as="geometry" />
        </mxCell>
        <mxCell id="YoZwcybYt3LhvjKQw7QA-27" value="receiveProvinceMsg()" style="text;html=1;strokeColor=none;fillColor=none;align=center;verticalAlign=middle;whiteSpace=wrap;rounded=0;" vertex="1" parent="1">
          <mxGeometry x="480" y="370" width="60" height="30" as="geometry" />
        </mxCell>
        <mxCell id="YoZwcybYt3LhvjKQw7QA-30" value="insert" style="text;html=1;strokeColor=none;fillColor=none;align=center;verticalAlign=middle;whiteSpace=wrap;rounded=0;" vertex="1" parent="1">
          <mxGeometry x="270" y="420" width="60" height="30" as="geometry" />
        </mxCell>
        <mxCell id="YoZwcybYt3LhvjKQw7QA-31" value="insert" style="text;html=1;strokeColor=none;fillColor=none;align=center;verticalAlign=middle;whiteSpace=wrap;rounded=0;" vertex="1" parent="1">
          <mxGeometry x="480" y="420" width="60" height="30" as="geometry" />
        </mxCell>
        <mxCell id="YoZwcybYt3LhvjKQw7QA-33" value="link table：enterprise - info | province - info&lt;br&gt;count table：enterprise - info | province - info" style="text;html=1;strokeColor=none;fillColor=none;align=center;verticalAlign=middle;whiteSpace=wrap;rounded=0;" vertex="1" parent="1">
          <mxGeometry x="260" y="445" width="280" height="70" as="geometry" />
        </mxCell>
        <mxCell id="YoZwcybYt3LhvjKQw7QA-34" value="" style="shape=flexArrow;endArrow=classic;html=1;rounded=0;endWidth=12;endSize=7.41;" edge="1" parent="1">
          <mxGeometry width="50" height="50" relative="1" as="geometry">
            <mxPoint x="580" y="360" as="sourcePoint" />
            <mxPoint x="720" y="360" as="targetPoint" />
          </mxGeometry>
        </mxCell>
        <mxCell id="YoZwcybYt3LhvjKQw7QA-35" value="cache" style="edgeLabel;html=1;align=center;verticalAlign=middle;resizable=0;points=[];" vertex="1" connectable="0" parent="YoZwcybYt3LhvjKQw7QA-34">
          <mxGeometry x="-0.2143" y="-4" relative="1" as="geometry">
            <mxPoint x="-3" y="-18" as="offset" />
          </mxGeometry>
        </mxCell>
        <mxCell id="YoZwcybYt3LhvjKQw7QA-57" style="edgeStyle=orthogonalEdgeStyle;rounded=0;orthogonalLoop=1;jettySize=auto;html=1;exitX=0.5;exitY=1;exitDx=0;exitDy=0;entryX=1;entryY=0.589;entryDx=0;entryDy=0;entryPerimeter=0;" edge="1" parent="1" source="YoZwcybYt3LhvjKQw7QA-36" target="YoZwcybYt3LhvjKQw7QA-21">
          <mxGeometry relative="1" as="geometry" />
        </mxCell>
        <mxCell id="YoZwcybYt3LhvjKQw7QA-36" value="" style="whiteSpace=wrap;html=1;aspect=fixed;" vertex="1" parent="1">
          <mxGeometry x="730" y="205" width="340" height="340" as="geometry" />
        </mxCell>
        <mxCell id="YoZwcybYt3LhvjKQw7QA-38" value="" style="endArrow=none;html=1;rounded=0;entryX=0;entryY=0.5;entryDx=0;entryDy=0;exitX=1;exitY=0.5;exitDx=0;exitDy=0;" edge="1" parent="1" source="YoZwcybYt3LhvjKQw7QA-36" target="YoZwcybYt3LhvjKQw7QA-36">
          <mxGeometry width="50" height="50" relative="1" as="geometry">
            <mxPoint x="630" y="500" as="sourcePoint" />
            <mxPoint x="680" y="450" as="targetPoint" />
          </mxGeometry>
        </mxCell>
        <mxCell id="YoZwcybYt3LhvjKQw7QA-42" value="enterprise" style="text;html=1;strokeColor=none;fillColor=none;align=center;verticalAlign=middle;whiteSpace=wrap;rounded=0;" vertex="1" parent="1">
          <mxGeometry x="730" y="205" width="60" height="30" as="geometry" />
        </mxCell>
        <mxCell id="YoZwcybYt3LhvjKQw7QA-43" value="province" style="text;html=1;strokeColor=none;fillColor=none;align=center;verticalAlign=middle;whiteSpace=wrap;rounded=0;" vertex="1" parent="1">
          <mxGeometry x="730" y="370" width="60" height="30" as="geometry" />
        </mxCell>
        <mxCell id="YoZwcybYt3LhvjKQw7QA-51" value="" style="group" vertex="1" connectable="0" parent="1">
          <mxGeometry x="40" y="170" width="560" height="90" as="geometry" />
        </mxCell>
        <mxCell id="YoZwcybYt3LhvjKQw7QA-50" value="" style="shape=callout;whiteSpace=wrap;html=1;perimeter=calloutPerimeter;" vertex="1" parent="YoZwcybYt3LhvjKQw7QA-51">
          <mxGeometry x="10" y="5" width="540" height="85" as="geometry" />
        </mxCell>
        <mxCell id="YoZwcybYt3LhvjKQw7QA-47" value="&lt;div&gt;主链路标识||消息类型||id_接入号||上级平台名称||消息发送/接收时间戳||消息发送/接收时间字符串&lt;/div&gt;&lt;div&gt;master||0x1001||1_10001||测试链路||1665565669878||2022-10-12 17:07:49.878&lt;/div&gt;" style="text;html=1;strokeColor=none;fillColor=none;align=center;verticalAlign=middle;whiteSpace=wrap;rounded=0;" vertex="1" parent="YoZwcybYt3LhvjKQw7QA-51">
          <mxGeometry x="20" y="15" width="540" height="40" as="geometry" />
        </mxCell>
        <mxCell id="YoZwcybYt3LhvjKQw7QA-48" value="Msg:" style="text;html=1;strokeColor=none;fillColor=none;align=center;verticalAlign=middle;whiteSpace=wrap;rounded=0;" vertex="1" parent="YoZwcybYt3LhvjKQw7QA-51">
          <mxGeometry width="60" height="30" as="geometry" />
        </mxCell>
        <mxCell id="YoZwcybYt3LhvjKQw7QA-52" value="HashMap&amp;lt;String,msg&amp;gt; cache" style="text;html=1;strokeColor=none;fillColor=none;align=center;verticalAlign=middle;whiteSpace=wrap;rounded=0;" vertex="1" parent="1">
          <mxGeometry x="720" y="230" width="200" height="40" as="geometry" />
        </mxCell>
        <mxCell id="YoZwcybYt3LhvjKQw7QA-53" value="HashMap&amp;lt;String,msg&amp;gt; cache" style="text;html=1;strokeColor=none;fillColor=none;align=center;verticalAlign=middle;whiteSpace=wrap;rounded=0;" vertex="1" parent="1">
          <mxGeometry x="720" y="400" width="200" height="40" as="geometry" />
        </mxCell>
        <mxCell id="YoZwcybYt3LhvjKQw7QA-55" value="" style="endArrow=none;html=1;rounded=0;" edge="1" parent="1" target="YoZwcybYt3LhvjKQw7QA-21">
          <mxGeometry width="50" height="50" relative="1" as="geometry">
            <mxPoint x="370" y="620" as="sourcePoint" />
            <mxPoint x="310" y="630" as="targetPoint" />
            <Array as="points">
              <mxPoint x="395" y="620" />
            </Array>
          </mxGeometry>
        </mxCell>
        <mxCell id="YoZwcybYt3LhvjKQw7QA-56" value="" style="endArrow=none;html=1;rounded=0;entryX=0.353;entryY=0.322;entryDx=0;entryDy=0;entryPerimeter=0;" edge="1" parent="1">
          <mxGeometry width="50" height="50" relative="1" as="geometry">
            <mxPoint x="394.5" y="620" as="sourcePoint" />
            <mxPoint x="394.51" y="558.98" as="targetPoint" />
          </mxGeometry>
        </mxCell>
        <mxCell id="YoZwcybYt3LhvjKQw7QA-58" value="table-detail" style="text;html=1;strokeColor=none;fillColor=none;align=center;verticalAlign=middle;whiteSpace=wrap;rounded=0;" vertex="1" parent="1">
          <mxGeometry x="310" y="570" width="80" height="40" as="geometry" />
        </mxCell>
        <mxCell id="YoZwcybYt3LhvjKQw7QA-59" value="table-summary" style="text;html=1;strokeColor=none;fillColor=none;align=center;verticalAlign=middle;whiteSpace=wrap;rounded=0;" vertex="1" parent="1">
          <mxGeometry x="400" y="570" width="80" height="40" as="geometry" />
        </mxCell>
        <mxCell id="YoZwcybYt3LhvjKQw7QA-60" value="mysql" style="text;html=1;strokeColor=none;fillColor=none;align=center;verticalAlign=middle;whiteSpace=wrap;rounded=0;" vertex="1" parent="1">
          <mxGeometry x="370" y="530" width="60" height="30" as="geometry" />
        </mxCell>
      </root>
    </mxGraphModel>
  </diagram>
</mxfile>
